<svg class="animated" id="freepik_stories-world-chocolate-day" xmlns="http://www.w3.org/2000/svg" viewBox="0 0 500 500" version="1.1" xmlns:xlink="http://www.w3.org/1999/xlink" xmlns:svgjs="http://svgjs.com/svgjs"><style>svg#freepik_stories-world-chocolate-day:not(.animated) .animable {opacity: 0;}svg#freepik_stories-world-chocolate-day.animated #freepik--background-simple--inject-2 {animation: 1.5s Infinite  linear heartbeat;animation-delay: 0s;}            @keyframes heartbeat {                0% {                    transform: scale(1);                }                10% {                    transform: scale(1.1);                }                30% {                    transform: scale(1);                }                40% {                    transform: scale(1);                }                50% {                    transform: scale(1.1);                }                60% {                    transform: scale(1);                }                100% {                    transform: scale(1);                }            }        .animator-hidden { display: none; }</style><g id="freepik--background-simple--inject-2" class="animable animator-active animator-hidden" style="transform-origin: 251.047px 238.61px;"><path d="M386.46,121.47a209.09,209.09,0,0,0-10.86-19C329.49,32.17,206-6.11,144.8,66.57c-14.58,17.33-19.67,38.26-29.48,58.13-22.33,45.18-64,72.19-90.2,114-20.28,32.44-17.57,74-6.26,109.07,12.29,38.1,33.92,64.71,68.52,84.93,38.78,22.68,80.27,16.38,122.19,8.49,18.86-3.54,38.3-7.17,57.58-5.81,24.14,1.69,48,8.53,71.91,11.85,24.91,3.45,50.75,4.27,74.74-3.26,76.83-24.1,95-137,63.44-201.73-11.19-22.9-30.14-40.57-47.74-58.49C410.5,164.43,398.85,145.49,386.46,121.47Z" style="fill: rgb(17, 131, 106); transform-origin: 251.047px 238.61px;" id="el23m4t8znpaig" class="animable"></path><g id="elmughpj11ame"><path d="M386.46,121.47a209.09,209.09,0,0,0-10.86-19C329.49,32.17,206-6.11,144.8,66.57c-14.58,17.33-19.67,38.26-29.48,58.13-22.33,45.18-64,72.19-90.2,114-20.28,32.44-17.57,74-6.26,109.07,12.29,38.1,33.92,64.71,68.52,84.93,38.78,22.68,80.27,16.38,122.19,8.49,18.86-3.54,38.3-7.17,57.58-5.81,24.14,1.69,48,8.53,71.91,11.85,24.91,3.45,50.75,4.27,74.74-3.26,76.83-24.1,95-137,63.44-201.73-11.19-22.9-30.14-40.57-47.74-58.49C410.5,164.43,398.85,145.49,386.46,121.47Z" style="fill: rgb(255, 255, 255); opacity: 0.8; transform-origin: 251.047px 238.61px;" class="animable"></path></g></g><g id="freepik--Hearts--inject-2" class="animable animator-hidden" style="transform-origin: 248.831px 230.423px;"><g id="eloqhlge9nqh"><g style="opacity: 0.3; transform-origin: 379.061px 60.6684px;" class="animable"><path d="M399.1,63l-1.79,1.79L379.07,83,360.82,64.76,359,63a12.88,12.88,0,0,1-1.91-15.82,12.1,12.1,0,0,0,3.08,12l1.69,1.7L379.07,78l17.17-17.18,1.69-1.7a12.1,12.1,0,0,0,3.08-12A12.88,12.88,0,0,1,399.1,63Z" style="fill: none; stroke: rgb(0, 0, 0); stroke-miterlimit: 10; transform-origin: 379.061px 65.06px;" id="elawcdr0fzz5b" class="animable"></path><path d="M397.93,59.11l-1.69,1.7L379.07,78,361.89,60.81l-1.69-1.7a12.1,12.1,0,0,1-3.08-12,12,12,0,0,1,3.08-5.21,12.13,12.13,0,0,1,17.17,0l1.7,1.69,1.69-1.69a12.14,12.14,0,1,1,17.17,17.17Z" style="fill: none; stroke: rgb(0, 0, 0); stroke-miterlimit: 10; transform-origin: 379.061px 58.1684px;" id="eln1p2fwni4a" class="animable"></path><path d="M399.1,63A12.88,12.88,0,0,0,401,47.15a12.1,12.1,0,0,1-3.08,12l-1.69,1.7L379.07,78v5l18.24-18.25Z" id="elj6sktz8pun" class="animable" style="transform-origin: 390.982px 65.075px;"></path></g></g><g id="elpcp8ugr57ql"><g style="opacity: 0.3; transform-origin: 62.6231px 172.656px;" class="animable"><path d="M82.66,174.85l-1.79,1.8L62.62,194.9,44.38,176.65l-1.8-1.8A12.88,12.88,0,0,1,40.68,159a12.12,12.12,0,0,0,3.07,12l1.69,1.69,17.18,17.19L79.8,172.69,81.49,171a12.12,12.12,0,0,0,3.08-12A12.88,12.88,0,0,1,82.66,174.85Z" style="fill: none; stroke: rgb(0, 0, 0); stroke-miterlimit: 10; transform-origin: 62.6231px 176.95px;" id="el6sjs9w5xadt" class="animable"></path><path d="M81.49,171l-1.69,1.69L62.62,189.88,45.44,172.69,43.75,171a12.15,12.15,0,0,1,17.18-17.18l1.69,1.69,1.69-1.69A12.15,12.15,0,0,1,81.49,171Z" style="fill: none; stroke: rgb(0, 0, 0); stroke-miterlimit: 10; transform-origin: 62.62px 170.146px;" id="elfqlcl7xum8d" class="animable"></path><path d="M82.66,174.85A12.88,12.88,0,0,0,84.57,159a12.12,12.12,0,0,1-3.08,12l-1.69,1.69L62.62,189.88v5l18.25-18.25Z" id="elqb4xu3ib12" class="animable" style="transform-origin: 74.5397px 176.94px;"></path></g></g><g id="ele0fw3l3ell"><g style="opacity: 0.3; transform-origin: 435.021px 172.656px;" class="animable"><path d="M455.05,174.85l-1.8,1.8L435,194.9l-18.25-18.25-1.79-1.8A12.88,12.88,0,0,1,413.06,159a12.12,12.12,0,0,0,3.08,12l1.69,1.69L435,189.88l17.18-17.19,1.69-1.69A12.12,12.12,0,0,0,457,159,12.88,12.88,0,0,1,455.05,174.85Z" style="fill: none; stroke: rgb(0, 0, 0); stroke-miterlimit: 10; transform-origin: 435.021px 176.95px;" id="elnr0eok048dh" class="animable"></path><path d="M453.88,171l-1.69,1.69L435,189.88l-17.18-17.19L416.14,171a12.15,12.15,0,0,1,17.18-17.18l1.69,1.69,1.69-1.69A12.15,12.15,0,0,1,453.88,171Z" style="fill: none; stroke: rgb(0, 0, 0); stroke-miterlimit: 10; transform-origin: 435.01px 170.146px;" id="eluynl53bzgfe" class="animable"></path><path d="M455.05,174.85A12.88,12.88,0,0,0,457,159a12.12,12.12,0,0,1-3.07,12l-1.69,1.69L435,189.88v5l18.24-18.25Z" id="elzidzyp27meo" class="animable" style="transform-origin: 446.937px 176.94px;"></path></g></g><g id="elxkssp56ntx9"><g style="opacity: 0.3; transform-origin: 162.506px 60.6697px;" class="animable"><path d="M182.53,63l-1.79,1.79L162.5,83,144.25,64.76,142.46,63a12.88,12.88,0,0,1-1.91-15.82,12.1,12.1,0,0,0,3.08,12l1.69,1.7L162.5,78l17.17-17.18,1.69-1.7a12.1,12.1,0,0,0,3.08-12A12.88,12.88,0,0,1,182.53,63Z" style="fill: none; stroke: rgb(0, 0, 0); stroke-miterlimit: 10; transform-origin: 162.506px 65.06px;" id="el68ziin0ogdu" class="animable"></path><path d="M181.36,59.11l-1.69,1.7L162.5,78,145.32,60.81l-1.69-1.7a12.1,12.1,0,0,1-3.08-12,12,12,0,0,1,3.08-5.21,12.13,12.13,0,0,1,17.17,0l1.7,1.69,1.69-1.69a12.14,12.14,0,1,1,17.17,17.17Z" style="fill: none; stroke: rgb(0, 0, 0); stroke-miterlimit: 10; transform-origin: 162.487px 58.1697px;" id="elj5fntpab639" class="animable"></path><path d="M182.53,63a12.88,12.88,0,0,0,1.91-15.82,12.1,12.1,0,0,1-3.08,12l-1.69,1.7L162.5,78v5l18.24-18.25Z" id="el7833oysqmsk" class="animable" style="transform-origin: 174.409px 65.09px;"></path></g></g><g id="elgkf863yjqii"><g style="opacity: 0.3; transform-origin: 419.044px 400.114px;" class="animable"><path d="M439.08,402.46l-1.79,1.79L419,422.51,400.8,404.25l-1.8-1.79a12.88,12.88,0,0,1-1.9-15.81,12.12,12.12,0,0,0,3.07,12l1.69,1.69L419,417.48l17.18-17.18,1.69-1.69a12.12,12.12,0,0,0,3.08-12A12.9,12.9,0,0,1,439.08,402.46Z" style="fill: none; stroke: rgb(0, 0, 0); stroke-miterlimit: 10; transform-origin: 419.036px 404.56px;" id="el49za59oulpw" class="animable"></path><path d="M437.91,398.61l-1.69,1.69L419,417.48,401.86,400.3l-1.69-1.69a12.15,12.15,0,1,1,17.18-17.18l1.69,1.69,1.69-1.69a12.15,12.15,0,0,1,17.18,17.18Z" style="fill: none; stroke: rgb(0, 0, 0); stroke-miterlimit: 10; transform-origin: 418.888px 397.599px;" id="ele86v3f3tvsl" class="animable"></path><path d="M439.08,402.46A12.9,12.9,0,0,0,441,386.65a12.12,12.12,0,0,1-3.08,12l-1.69,1.69L419,417.48v5l18.25-18.26Z" id="elhy48nhp77ya" class="animable" style="transform-origin: 430.933px 404.565px;"></path></g></g><g id="elstl8n4g633g"><g style="opacity: 0.3; transform-origin: 94.128px 400.114px;" class="animable"><path d="M114.16,402.46l-1.79,1.79L94.12,422.51,75.88,404.25l-1.8-1.79a12.88,12.88,0,0,1-1.9-15.81,12.1,12.1,0,0,0,3.07,12l1.69,1.69,17.18,17.18L111.3,400.3l1.69-1.69a12.12,12.12,0,0,0,3.08-12A12.9,12.9,0,0,1,114.16,402.46Z" style="fill: none; stroke: rgb(0, 0, 0); stroke-miterlimit: 10; transform-origin: 94.128px 404.56px;" id="el64cwmgae6h4" class="animable"></path><path d="M113,398.61l-1.69,1.69L94.12,417.48,76.94,400.3l-1.69-1.69a12.15,12.15,0,1,1,17.18-17.18l1.69,1.69,1.69-1.69A12.15,12.15,0,0,1,113,398.61Z" style="fill: none; stroke: rgb(0, 0, 0); stroke-miterlimit: 10; transform-origin: 94.0473px 397.599px;" id="elda6ibc8uzs5" class="animable"></path><path d="M114.16,402.46a12.9,12.9,0,0,0,1.91-15.81,12.12,12.12,0,0,1-3.08,12l-1.69,1.69L94.12,417.48v5l18.25-18.26Z" id="elmogqm6mmiy" class="animable" style="transform-origin: 106.029px 404.565px;"></path></g></g></g><g id="freepik--Dish--inject-2" class="animable" style="transform-origin: 245.69px 281.28px;"><ellipse cx="245.56" cy="298.23" rx="204.53" ry="90.98" style="fill: rgb(38, 50, 56); stroke: rgb(38, 50, 56); stroke-linecap: round; stroke-linejoin: round; transform-origin: 245.56px 298.23px;" id="el3r66d30bq7" class="animable"></ellipse><path d="M460.44,281.67c0,55.38-96.15,100.27-214.75,100.27q-10.86,0-21.45-.5a422.87,422.87,0,0,1-59.07-6.79c-78.71-14.87-134.23-50.9-134.23-93,0-1.35.06-2.68.17-4C35.62,224.14,130,181.4,245.69,181.4s210.07,42.74,214.58,96.25C460.38,279,460.44,280.32,460.44,281.67Z" style="fill: rgb(255, 255, 255); stroke: rgb(38, 50, 56); stroke-linecap: round; stroke-linejoin: round; transform-origin: 245.69px 281.67px;" id="el3xwgybjdfs" class="animable"></path><ellipse cx="245.69" cy="273.62" rx="214.75" ry="100.27" style="fill: rgb(255, 255, 255); stroke: rgb(38, 50, 56); stroke-linecap: round; stroke-linejoin: round; transform-origin: 245.69px 273.62px;" id="el31uml4jl56" class="animable"></ellipse><ellipse cx="245.69" cy="269.57" rx="170.86" ry="79.78" style="fill: rgb(255, 255, 255); stroke: rgb(38, 50, 56); stroke-linecap: round; stroke-linejoin: round; transform-origin: 245.69px 269.57px;" id="el9ft4kepukbj" class="animable"></ellipse></g><g id="freepik--World--inject-2" class="animable" style="transform-origin: 253.29px 182.71px;"><ellipse cx="230.57" cy="249.3" rx="90.51" ry="41.18" style="fill: rgb(38, 50, 56); stroke: rgb(38, 50, 56); stroke-linecap: round; stroke-linejoin: round; transform-origin: 230.57px 249.3px;" id="elibgxj6jn6s" class="animable"></ellipse><path d="M327.76,98.14a104,104,0,0,0-65.63-23.2,105.61,105.61,0,0,0-13,.8,103.65,103.65,0,0,0-26.58,7l-1.56.66c-.57.24-1.14.5-1.71.75q-4.6,2.09-9,4.58l-5.82,3.59c-.45.3-.91.6-1.35.91a104.39,104.39,0,1,0,124.63,4.94Z" style="fill: rgb(255, 255, 255); transform-origin: 262.109px 179.339px;" id="elxk1oh1s03wh" class="animable"></path><g id="elqbxe6j0kk0k"><path d="M309.53,267.87A117.88,117.88,0,0,1,208,90.11l-3.52,2.18c-.45.3-.91.6-1.35.91A104.4,104.4,0,0,0,317.91,267.57Q313.76,267.87,309.53,267.87Z" style="stroke: rgb(38, 50, 56); stroke-linecap: round; stroke-linejoin: round; opacity: 0.2; transform-origin: 237.903px 186.863px;" class="animable"></path></g><path d="M204.92,192.83l-3.31-2.73-2.94,0-1.3,0L195.5,192l.87.64,2.39-1.51.37.29,4.51,3.49,5.58.35.76-1.16Zm9.42,1.34-3,.64.82,2.85-2.8-.18-.63,2,5.11-.23.7-1.4,2.79.47.41-2ZM335.65,165.9l-2.61-.11-.72,1.11,2.33.88.6,1.17.78.44Zm-7-5.27-2-.66.61,2.94.17,1.27-.28.39,1.39.45,1.05-1.39Zm-.78-4.16-.83.78.39,1.5,1.27.27ZM305,130.83l-3.76-1.1-1.09,2.55,1.45,2.19-1.33,1.94,1.09,1.09c.36.36,3.76-1.09,3.76-1.09Zm8.25,3.64-2.06-5.34-3-1.7.73-3.16-3.28-.6,1.33-2.43-2.91.37-1.33,2.91,1.45,3.76,1.21-.12,3.4,3.64-.24,2.18-1.58-.24-.36,3.76,2.31.73-2.55,1.46,1,2.78,3.76-2.78,3.64.24,1.22-4.49Zm50,47.56.12,5.34,2.45,4.08a105.47,105.47,0,0,0,.7-12.12,104.22,104.22,0,0,0-38.76-81.19l-.19,2.23,4.61,3.76,2.43,7.65-6.79-3.89-1.22-3.28a9.84,9.84,0,0,0,1.34-1.57c.12-.36-6.68-6.19-6.68-6.19l-9.71-3.52-1.09,3.76,4.37,12.62-2.55,4.86,3.65,8.61,2.66.61,1.7-3.4,5.58,8.74,2.31-1.1-2.31-4.72,1-3.77-4.49-4.37-.85-9.83,2.43.37,2.91,10.43,3.77,4.74,4.25-2.67.72,3.4-2.06.85s2.06,3.88,2.18,4.24-1.82,1.7-1.82,1.7l-.12,4.49-9.34.85-2.55-8.25-2.43,1,1.82,7.28-2.31.61-1,4-8.38,6.19,2.92,2.31.85,8.25-9.71-.37-.49,6.56-.36,3.39,4.24,1.34s0,1.09.37,1.45,4.37.49,4.37.49l1.21-1h2.07l2.42-3.52-1.21-2.67,4.36-2.43.13-3,3.15-.12a20.21,20.21,0,0,1,2.19-1.58c.36-.12,4.73,3.28,4.73,3.28l3,3.15,1.21,2.18,1.22,2.55.24,1.83,1.58-1-.73-2.92,1.7-.72L339,160.8l-2.06-1.33-3.4-4.25-2.79-3.16,1.33-1.57,2.06.85,6.8,6.79.73,5,.48,3.64.61,2.19,1.58-1.7s1.21-.49,1.21-1a18.17,18.17,0,0,0-1.94-3.16l.73-2.3H346l.73,1.58,1.7-2.43-1.1-3,.85-6.68,2.19.37.24,3,1.21.12.12-3.52,2.19-.73.85,1.22-1.34,2.67,4,5.94s.61,1.58.25,1.95-.73,1-1.1.84-1.81-.73-1.81-.73l-1.1-1.08-2.3.36L350.26,162l-1.57.85a5.18,5.18,0,0,0-1.22,1.21l-.12,1.45,1,3.28v1h1.82l1.22,1.21,1.81.61c.37.12,1.7-1.7,1.7-1.7l.85,1.58-1.33,7.77s-2.55.12-2.92.12a27.71,27.71,0,0,0-3.15,1.33L343.47,176l-1.7.49-.73,4-.36,1.09a31.9,31.9,0,0,0-3.64-2.43c-.37,0-1.58-3.15-1.58-3.15l-5.7-2.91,1.45-1.94-.6-4.13-3.16.73-14.92,2.79-2.07-.85-4.61,4.85-2.06.37-.24,5.58-5.34,4-3.89,6.07-2.18,3.76.12,13.11,7.52,9.83,16.75-.25,3.15,1.7,2.31.49-2.55,7s1.82,8.37,2.67,9.46-9.22,12.74-9.22,12.74-1.21,4.37-1.21,4.73v1L304.15,265l1.82-.12,10.56-3.64,3.4-1.82s4-5.83,4.36-5.95,7-6.19,7-6.19l3.89-1.82,2.42-3.64,4.13-8.61,10.68-10.2,3.27-5.09,1.94-6.32-4.24,1.46V197.69l-1.95-10.8.49-3.28,1.7-.12,1.34.85.85,14.32-.25,9,1.95,2.55,5.94-14.93-1.82-6.67.24-6.19Zm-75.72-77.29V102h-3.89l-.36,1.58-5.1-.85-1,2.18,3.27,1.7L279,108.14l5.83,2.3,5.1-3.76Zm-44.78,35.8-4.13,1.21-1.45-1.46.24-2.3L234,139.44l-3,5.46,2.06,2.43,3.52-2.55-.48,2.79,2.06.61,1-2.31,1.21,2.19,3.89-4Zm-30.21-29.13-1.22,1.82h1.45l2.32-1.45Zm2.3-5.7-3,.24-3.16,3.4,2.31,1.82,2.66-2.07,1.1,1.22,1.58-1.22ZM234.38,85.2l-.73,1.21,2.55,1.82,1.94-2.67Zm0,11.65,2.55-1.7V92.36l-2.07-1.09.49-1.58-4.49-1.21.73-3.28-4.13,1.58-5.34,5.7,1.46,1.46,3.4-.61L229.16,96s-.85,5.46-1.22,5.7-2.42,2.19-2.91,2.55-2.18,1.34-2.18,1.34l-4,.24-.85,1.82,5.58-.24,2.67,7.16h3.27l-1.21-3.64,2.55-.37,1.69-3-1.33-1.82s.48-2.43.61-2.91,1.94-.25,1.94-.25l.85,3.28,2.79-3,1.09-2.8Zm-24.27-4.73.19-3.42L208,90.12l-3.51,2.17.77,1.65-1.58,1.82.13,1.82.2-.1,2.35-1.24,2.55,1s3.15-.72,3.51-.85.36-4.36.36-4.36Zm54.48,139.79-4.49-2.19-15.41-6.06s.37-3,.85-3.15-7.65-5.59-7.65-5.59l-4.61.36-2.66-2.18-5-3.16-2.06,1.1a12.1,12.1,0,0,0-2.19-1.82,12.47,12.47,0,0,0-1.94-.13L217.51,208l-2.06.85.24,3-1.82-.37.24-4.73-1.82.12a8.66,8.66,0,0,0-1.09,1.46c-.12.36-2.43.12-2.43.12l-.72,1.5-.61,1.29-2.79-1.45-3.16,1-2.42-2.66-1-6.68-5.58.37,1-9-4.12.24-.49,3.4-1.7,1.7-3.76.36-2.31-5-.72-10.19,4.49-3.89,1.82.74,2.43,1v-2.42l3.88-.61,1.46,1,.77-.22.93-.26,1.81,2.42-.12,2.92,1.46,3.27,1.7-.48-2.79-10.2,8.37-6.67s-.24-2.91-.37-3.27,1.34-6.19,1.34-6.19l3.76-1.58,2.67-1.58v-1l.61-2.91,2.3-1.7,1.58-1.34,2.18-1.08,1.7.84-1.94,2.79,1.94.85,2.31-3.27,5.46-2.68L228.19,146l-3.76,2.66L222.85,145l1.21-2.55h-1.7l-6.31,4.74-2.3-1.34,7.28-5a69.17,69.17,0,0,1,8.25-1.09,6.09,6.09,0,0,0,4-1.58l4.37-3.16-.85-4.36L231.7,128a14.85,14.85,0,0,0,1-2.66c.12-.85-2.31-8.13-2.31-8.13s-5.22,5.58-5.7,5.58a7.66,7.66,0,0,1-2.07-1.21s1.58-5.71,1.46-6.07-3.15-3.52-4-3.64a10,10,0,0,0-3,.73c-.48.12-1.82,6.67-1.82,6.67s-1.45,1-2.06,1.46.25,5.94.25,6.67-5.1,1.94-5.1,1.94l-.73,7.89-3.28-1s1.22-6.56.13-6.68-7.65-5.94-7.65-5.94.12-4.74.48-4.74,6.92-6.67,7.41-6.79,8.37-8.61,8.37-8.61l4.49-.37,3.28-2.06,2.91-3.89-3.52-2.3-4.86,4.61.85-1.82-.72-3.64L221,91l1.09-2.91-6.43.73,5.95-4.37-.67-1.1-.06-.11-1.65.86-7,3.63.48,3.15,6.19-.84-4.61,2.18-.48,3.52-2.06,2.18-2.19,1.46-5.7-.85L202.78,100l-.68.85-2.07-.72,3.53-6.07-.43-.86a104.92,104.92,0,0,0-28.52,29.21l-1.27,4.41-.61,1.7-3,6.43-.49,8.14-4.12,11.16-1.46,14.44.85,3.64.12,4.49,4.86,13.23,1.94,1-5.34-14.07,1.45-.24,1.7,3.52,1.58,5.09s6.8,13.72,7.52,14.32a18.94,18.94,0,0,1,2.19,3.16l5.09-1.21,1.95,3.15,6.43,1.09,3.52,6,7,1.94.73-1.22,2.55,1.1,1.34,5.34-2.31,6.55,2.43,3.88v3.89l1.58,1.33,6.06,6.55,7.65,4.13,12.25,25,5.83,5.46,5.09,3.39,6.31,2.68.25-1.7-4.37-1.34-2.43-1.94c-.6-.49-1.82-1.34-1.82-1.34l-1-1.94-1-1L242.63,270l2.67-1.21.61-1.46-2.07-3.15h3.64l2.67-9.59,2.43-1.38,5.71-3.23.48-8.25,5.94-8ZM222.53,82.71l.2.91s5.21-.6,8-1.21,1-.73,1-.73a5.31,5.31,0,0,1,1.1-.85,27.37,27.37,0,0,1,3.15,0l-3.27,2.55h2.42c1.46,0,2.55.12,2.55.12l1.09-.36,1.1-1.34,1.09-.73s3.76-1.57,4.73-1.94c.78-.29,2.71-2.5,3.45-3.39A103.65,103.65,0,0,0,222.53,82.71Zm51.53-1.39a67.51,67.51,0,0,0-6.67-4.85c-1-.74-2.55-.74-3.89-1.1s-7.89-.12-7.89-.12-4.49,1.46-4.24,1.94-.37,1-.37,1-3.15,1-2.79,2,2.55,1.57,2.79,2.18-3.39,7.88-2.43,8a1.83,1.83,0,0,1,1.34,1.21s-2.06,1-2.06,1.94,1.82,1.21,1.82,1.21,1.21.85,1.09,1.46.24,1.58-.61,2.19a29.54,29.54,0,0,0-2.43,1.82A9.67,9.67,0,0,0,246,102.8l1.45,10.07,1.58,3.52s3.27,3.15,4.25,2.3,3.4-3.15,3.51-4.73a26.12,26.12,0,0,0-.11-3.88s4-5.7,4.6-5.7,5.59-1.22,5.83-1.7.49-4.62,1.34-4.74,7.89-1.94,8.25-2.54S276.48,83.5,274.06,81.32Z" style="fill: rgb(17, 131, 106); stroke: rgb(38, 50, 56); stroke-linecap: round; stroke-linejoin: round; transform-origin: 265.09px 178.526px;" id="el9yu4qjqdp9n" class="animable"></path><path d="M197.37,190.16l1.3,0c.15.42.3.83.46,1.24l-.37-.29-2.39,1.51-.87-.64Z" style="fill: rgb(38, 50, 56); stroke: rgb(38, 50, 56); stroke-linecap: round; stroke-linejoin: round; transform-origin: 197.315px 191.39px;" id="el4f171ggkveh" class="animable"></path><path d="M254.28,280.09l-.25,1.7-6.31-2.68-5.09-3.39-5.83-5.46-12.25-25-7.65-4.13-6.06-6.55-1.58-1.33v-3.89l-2.43-3.88,2.31-6.55-1.34-5.34-2.55-1.1-.73,1.22-7-1.94-3.52-6-6.43-1.09-1.95-3.15-5.09,1.21a18.94,18.94,0,0,0-2.19-3.16c-.72-.6-7.52-14.32-7.52-14.32l-1.58-5.09-1.7-3.52-1.45.24L171.4,191l-1.94-1-4.86-13.23-.12-4.49-.85-3.64,1.46-14.44,4.12-11.16.49-8.14,3-6.43.61-1.7,1.27-4.41A104.92,104.92,0,0,1,203.13,93.2c.44-.31.9-.61,1.35-.91L208,90.12c-1.41,2.4-2.75,4.85-4,7.36-.42.83-.83,1.67-1.22,2.52a118.25,118.25,0,0,0-7.55,78.9l-.77.22-1.46-1-3.88.61v2.42l-2.43-1-1.82-.74-4.49,3.89.72,10.19,2.31,5,3.76-.36,1.7-1.7.49-3.4,4.12-.24-1,9,5.58-.37,1,6.68,2.42,2.66,3.16-1,2.79,1.45.61-1.29a118.31,118.31,0,0,0,44.53,43.23l-2.43,1.38-2.67,9.59h-3.64l2.07,3.15-.61,1.46L242.63,270l1.09,2.55,1,1,1,1.94s1.22.85,1.82,1.34l2.43,1.94Z" style="fill: rgb(38, 50, 56); stroke: rgb(38, 50, 56); stroke-linecap: round; stroke-linejoin: round; transform-origin: 208.955px 185.955px;" id="elljpxucxlc6s" class="animable"></path><path d="M327.76,98.14a104,104,0,0,0-65.63-23.2,105.61,105.61,0,0,0-13,.8,103.65,103.65,0,0,0-26.58,7l-1.56.66c-.57.24-1.14.5-1.71.75q-4.6,2.09-9,4.58l-5.82,3.59c-.45.3-.91.6-1.35.91a104.39,104.39,0,1,0,124.63,4.94Z" style="fill: none; stroke: rgb(38, 50, 56); stroke-linecap: round; stroke-linejoin: round; transform-origin: 262.109px 179.339px;" id="elnv13i8qf7gd" class="animable"></path></g><g id="freepik--melted-chocolate--inject-2" class="animable" style="transform-origin: 295.064px 154.637px;"><path d="M359.09,286.49c-12.81-1.24-30.86-.41-30.86-.41s-.82-19.83.83-24a26.17,26.17,0,0,1,4.38-6.1l-.23-1.34s7.32-9.85,8.56-21.43-5.47-37.38,4.85-47.7,9.08,30.12,5.83,37.5c-2.16,4.91-9.27,18.42-13.79,27.83,1.62-1.35,2.8-2,2.8-1.16,0,2.48.41,16.11-.42,18.59s-9.91,7.85,7.44,10.33,23.55-5.78,19-8.26-19.41-3.72-21.07-5.79S344.76,249.72,346,246s10.74-14,16.11-27.27c7.13-17.54,7.78-37.8,5.7-56.47-6.46-58-73.17-108.85-130.57-85.57-13,5.27-18.77,16.59-19.62,30.15-1.06,16.92,10.61,30.81,22.7,41.22,17.28,14.86,54.18,23,66.57,43.68s19.28,54.26,17.63,64.59-1.89,26.68-2.71,28.75-12.8,3.84-14.4,9.85c-2.06,7.73,18.47,19.46,50.26,11.91C382.21,301,371.89,287.73,359.09,286.49Z" style="fill: rgb(38, 50, 56); transform-origin: 295.064px 190.094px;" id="el2mwqk3q4m6j" class="animable"></path><path d="M289.59,73.79c-5.17-1.38-11-1.73-10.35-3.11s2.42-4.14,0-5.86-4.83,0-7.25-3.45-2.41-7.25-3.1-10.7l-.12-.6L270.47,0h-9.41l1.63,57c-.13,1.52-.44,2.78-1.05,3.29-2.07,1.73-7.59,5.18-5.18,6.9L258.88,69s-9.32-1-13.8,3.1,4.14,11.74,13.8,14.84,31.4,2.42,35.89-2.76S294.77,75.17,289.59,73.79Z" style="fill: rgb(38, 50, 56); transform-origin: 270.238px 44.3999px;" id="el0wk4c91td3ae" class="animable"></path><g id="el7o6fiwf3ml"><path d="M277.55,67.74s.16,1.52-2.43,3.5-7.45,1.36-5.63,2.43,9.16-1.41,9.75-3S279.53,65.61,277.55,67.74Z" style="fill: rgb(255, 255, 255); opacity: 0.19; transform-origin: 274.301px 70.4986px;" class="animable"></path></g><g id="elauehre8p1j"><path d="M262.49,84.78s8.07,6.08,20.54,2.58,8.07-10.8,4.57-11.86,1.21,2.89-1.68,6.69S276.49,88.43,262.49,84.78Z" style="fill: rgb(255, 255, 255); opacity: 0.19; transform-origin: 276.897px 81.8855px;" class="animable"></path></g><g id="elg07mo8om73b"><g style="opacity: 0.19; transform-origin: 316.548px 160.365px;" class="animable"><path d="M366.79,163.28C363.52,134,344.56,106.5,319.22,89.8c-2.64-.83-5-.67-6.5,1.38-5.61,7.63,31.67,34.63,34.69,60.26s-10.31,2.23-35.24-3.34-21.88-2.53-24.94,9.16c-.88,3.36-1.66,5.51-2.66,7a3.87,3.87,0,0,1-2.85.25c-2.25-.68-5.85-3.38-5.4-1.13s3,1.15,6.12,2.94l1.69-1.47a6.93,6.93,0,0,1-1.69,1.47c3.28,1.19,19.81,7.58,26.86,17.77,7.83,11.33,11,22.66,16.45,33.21,1,1.85,8.92,18.2,12.7,12.44a5.49,5.49,0,0,0,.7-2.26c1.71-11.34-1-20.48,1.68-34.24.86-4.39,1.15-16.27,7.37-16.74,7.58-.58,10.78,10.13,11.45,15.85,1.3,10.9-1,20.87-5.37,30.76-.15.35-1.61,5-1.81,5.42.7,3.64.23,2.39,2.14,2.87a80.6,80.6,0,0,0,6.55-12.46C368.2,201.63,368.85,181.67,366.79,163.28Z" style="fill: rgb(255, 255, 255); transform-origin: 322.048px 160.365px;" id="ely6fdig8chwb" class="animable"></path><ellipse cx="271.59" cy="161.67" rx="2.48" ry="1.46" style="fill: rgb(255, 255, 255); transform-origin: 271.59px 161.67px;" id="el5xuapkias1o" class="animable"></ellipse><path d="M266.63,158.4c-.75,0-1.35.36-1.35.79s.6.79,1.35.79,1.35-.35,1.35-.79S267.38,158.4,266.63,158.4Z" style="fill: rgb(255, 255, 255); transform-origin: 266.63px 159.19px;" id="eleb22f638vd5" class="animable"></path></g></g><g id="el6mifijpbz7v"><path d="M365.09,288c-13.18-.09-31,.83-33.41,6.34s6.92,10.73,17.22,14.14c2.82-.39,5.75-.93,8.77-1.65C378.14,302,374.35,291.93,365.09,288Z" style="fill: rgb(255, 255, 255); opacity: 0.19; transform-origin: 351.934px 298.237px;" class="animable"></path></g><g id="eliwcnukunazs"><path d="M351.63,273.19c2.34,2.63,5.85,4.26,9.63,5.19,7.35-1.77,9.38-6.28,6.22-8l-.41-.21C361.83,269.68,347.67,268.73,351.63,273.19Z" style="fill: rgb(255, 255, 255); opacity: 0.19; transform-origin: 359.93px 274.057px;" class="animable"></path></g><g id="elyzq1fqkgi8p"><path d="M316.82,139.1c-.41-7-14.36-18.9-21.55-18.71-4.49.12-12.27,6-15.57,11.47a4.6,4.6,0,0,0-2.64-1.45c-1.05,0-3.13,1.87-3,2.89.17,1.3,2.67,3.71,4,3.5,0,0,.07,0,.11,0a.62.62,0,0,0,0,.13c1,7.43,15.23,21.18,22.77,20C306.89,155.93,317.17,145,316.82,139.1Z" style="fill: rgb(255, 255, 255); opacity: 0.52; transform-origin: 295.441px 138.695px;" class="animable"></path></g><g id="ely2ln1q1i88c"><path d="M271.72,130.39c-.66,0-2,1.18-1.89,1.83.11.82,1.69,2.34,2.52,2.21.66-.11,1.8-1.32,1.76-2A3.25,3.25,0,0,0,271.72,130.39Z" style="fill: rgb(255, 255, 255); opacity: 0.52; transform-origin: 271.967px 132.414px;" class="animable"></path></g><g id="elxsj1cn6diwg"><path d="M325.13,125.43c-2.54.08-7.57,5.15-7.25,8,.41,3.58,6.46,10.21,9.66,9.64,2.52-.46,6.88-5.73,6.73-8.58C334.09,131.06,328.18,125.34,325.13,125.43Z" style="fill: rgb(255, 255, 255); opacity: 0.52; transform-origin: 326.07px 134.267px;" class="animable"></path></g></g><g id="freepik--chocolate-bars--inject-2" class="animable" style="transform-origin: 173.52px 305.67px;"><path d="M282.38,357.62l-43.66,16.22L225,380.45l-.73,1a422.87,422.87,0,0,1-59.07-6.79l-3.59-4.79-4-4.77L125,326l-12.44-14.9L83.13,294.2l-20-11.53,13.52-1.51,85-9.52L261,349Z" style="fill: rgb(38, 50, 56); stroke: rgb(38, 50, 56); stroke-linecap: round; stroke-linejoin: round; transform-origin: 172.755px 326.545px;" id="elzqvvvh8n208" class="animable"></path><polygon points="258.99 319.85 278.71 343.25 282.38 357.62 188.53 387.78 105.95 289.13 258.99 319.85" style="fill: rgb(140, 140, 140); stroke: rgb(38, 50, 56); stroke-linecap: round; stroke-linejoin: round; transform-origin: 194.165px 338.455px;" id="elphqqmxgqerg" class="animable"></polygon><polygon points="278.71 343.25 189.09 368.33 188.53 387.78 282.38 357.62 278.71 343.25" style="fill: rgb(38, 50, 56); stroke: rgb(38, 50, 56); stroke-linecap: round; stroke-linejoin: round; transform-origin: 235.455px 365.515px;" id="elyyrc3rtdy6j" class="animable"></polygon><line x1="185.71" y1="366.36" x2="127.93" y2="298.43" style="fill: none; stroke: rgb(255, 255, 255); stroke-linecap: round; stroke-linejoin: round; transform-origin: 156.82px 332.395px;" id="elfa0ytde54vm" class="animable"></line><polygon points="238.41 355.08 220.94 336.2 218.4 337.33 234.19 355.65 238.41 355.08" style="fill: rgb(38, 50, 56); stroke: rgb(38, 50, 56); stroke-linecap: round; stroke-linejoin: round; transform-origin: 228.405px 345.925px;" id="elx7ikm2zk5s" class="animable"></polygon><polygon points="254.19 324.65 218.12 333.95 204.87 320.7 199.24 319.29 194.44 315.35 154.71 324.36 151.32 325.77 150.2 322.95 151.32 320.7 179.23 313.94 172.18 308.86 140.9 303.79 128.78 316.75 105.95 289.13 253.07 320.14 254.19 324.65" style="fill: rgb(38, 50, 56); stroke: rgb(38, 50, 56); stroke-linecap: round; stroke-linejoin: round; transform-origin: 180.07px 311.54px;" id="elxmzm0vvp7s" class="animable"></polygon><polygon points="211.64 335.36 169.64 346.35 170.49 343.25 209.1 333.67 211.64 335.36" style="fill: rgb(38, 50, 56); stroke: rgb(38, 50, 56); stroke-linecap: round; stroke-linejoin: round; transform-origin: 190.64px 340.01px;" id="elen1hvibntwv" class="animable"></polygon><path d="M282.16,259.3l1.75,14.53-22.09,51.44-197-42.72a3.35,3.35,0,0,1-1.17-2.61v-1.75L68,266.86l15.11-21.51,2.22-1a15.25,15.25,0,0,1,1.37-2.84C87,241,100.17,224,100.82,223.56l27.9,4.94,3.2.58,34.29,7.27,4.95,2.48,3.2-.58,31.14,6.09,2.66,2.79,1.12.17,2.59-2,31.89,7.12.38,1.35,3.73.87,2.62-1.45Z" style="fill: rgb(140, 140, 140); stroke: rgb(38, 50, 56); stroke-linecap: round; stroke-linejoin: round; transform-origin: 173.78px 274.415px;" id="elae1qinyxgpp" class="animable"></path><line x1="267.11" y1="284.5" x2="257.22" y2="306.63" style="fill: none; stroke: rgb(255, 255, 255); stroke-linecap: round; stroke-linejoin: round; transform-origin: 262.165px 295.565px;" id="elnl767bs531a" class="animable"></line><path d="M98.81,274,101,277.6l3.9-1.73,31.51,6.57,2.75,3.05,3.36-1.52,35.91,8.46,3.19,3.2,4.65-2.32,31.66,6.62,2.2,2.52,6,.15,32.83,7,2.91,15.69-197-42.72a3.35,3.35,0,0,1-1.17-2.61v-1.75L67.56,268Z" style="fill: rgb(38, 50, 56); stroke: rgb(38, 50, 56); stroke-linecap: round; stroke-linejoin: round; transform-origin: 162.785px 296.645px;" id="el8cyywktuh8p" class="animable"></path><line x1="258.91" y1="309.58" x2="280.85" y2="260.73" style="fill: none; stroke: rgb(255, 255, 255); stroke-linecap: round; stroke-linejoin: round; transform-origin: 269.88px 285.155px;" id="elq8xc96y5zp" class="animable"></line><polygon points="85.31 244.32 117.29 251.61 115.97 247.8 86.68 241.48 85.31 244.32" style="fill: rgb(38, 50, 56); stroke: rgb(38, 50, 56); stroke-linecap: round; stroke-linejoin: round; transform-origin: 101.3px 246.545px;" id="ely1tsbf8y16g" class="animable"></polygon><line x1="115.97" y1="247.8" x2="129.22" y2="229.48" style="fill: none; stroke: rgb(255, 255, 255); stroke-linecap: round; stroke-linejoin: round; transform-origin: 122.595px 238.64px;" id="elfdf8zfyuoe7" class="animable"></line><line x1="117.29" y1="251.61" x2="132.46" y2="230.61" style="fill: none; stroke: rgb(38, 50, 56); stroke-linecap: round; stroke-linejoin: round; transform-origin: 124.875px 241.11px;" id="elyvkue9m04on" class="animable"></line><polygon points="121.19 251.85 155.52 259.89 153.95 256.4 122.56 249 121.19 251.85" style="fill: rgb(38, 50, 56); stroke: rgb(38, 50, 56); stroke-linecap: round; stroke-linejoin: round; transform-origin: 138.355px 254.445px;" id="elloa7dhg27vh" class="animable"></polygon><line x1="154.11" y1="255.78" x2="167.35" y2="237.46" style="fill: none; stroke: rgb(255, 255, 255); stroke-linecap: round; stroke-linejoin: round; transform-origin: 160.73px 246.62px;" id="elb724zyvd1ts" class="animable"></line><line x1="156.03" y1="259.97" x2="171.2" y2="238.97" style="fill: none; stroke: rgb(38, 50, 56); stroke-linecap: round; stroke-linejoin: round; transform-origin: 163.615px 249.47px;" id="elo8suoz9nei" class="animable"></line><polygon points="158.88 260.28 195.68 268.08 194.36 264.27 160.24 257.43 158.88 260.28" style="fill: rgb(38, 50, 56); stroke: rgb(38, 50, 56); stroke-linecap: round; stroke-linejoin: round; transform-origin: 177.28px 262.755px;" id="elo2d8913sny" class="animable"></polygon><line x1="194.36" y1="264.27" x2="204.55" y2="247.41" style="fill: none; stroke: rgb(255, 255, 255); stroke-linecap: round; stroke-linejoin: round; transform-origin: 199.455px 255.84px;" id="elbyyallocomp" class="animable"></line><line x1="195.68" y1="268.08" x2="207.06" y2="248.95" style="fill: none; stroke: rgb(38, 50, 56); stroke-linecap: round; stroke-linejoin: round; transform-origin: 201.37px 258.515px;" id="elymuhyi3ouvo" class="animable"></line><polygon points="199.61 268.56 234.27 275.85 232.95 272.04 200.98 265.72 199.61 268.56" style="fill: rgb(38, 50, 56); stroke: rgb(38, 50, 56); stroke-linecap: round; stroke-linejoin: round; transform-origin: 216.94px 270.785px;" id="elqm37hmk4wgm" class="animable"></polygon><line x1="232.95" y1="272.04" x2="242.79" y2="254.17" style="fill: none; stroke: rgb(255, 255, 255); stroke-linecap: round; stroke-linejoin: round; transform-origin: 237.87px 263.105px;" id="elo72c1gr3jnb" class="animable"></line><line x1="234.27" y1="275.85" x2="244.53" y2="255.71" style="fill: none; stroke: rgb(38, 50, 56); stroke-linecap: round; stroke-linejoin: round; transform-origin: 239.4px 265.78px;" id="elf526856gwpp" class="animable"></line><line x1="269.59" y1="279.8" x2="270.44" y2="282.19" style="fill: none; stroke: rgb(38, 50, 56); stroke-linecap: round; stroke-linejoin: round; transform-origin: 270.015px 280.995px;" id="elrtcaagyzuli" class="animable"></line><line x1="278.47" y1="260.77" x2="269.59" y2="279.8" style="fill: none; stroke: rgb(255, 255, 255); stroke-linecap: round; stroke-linejoin: round; transform-origin: 274.03px 270.285px;" id="elbnfbhespcoi" class="animable"></line><polygon points="269.59 279.8 240.56 273.74 238.87 276.56 270.58 283.6 269.59 279.8" style="fill: rgb(38, 50, 56); stroke: rgb(38, 50, 56); stroke-linecap: round; stroke-linejoin: round; transform-origin: 254.725px 278.67px;" id="eloao7dop7wmc" class="animable"></polygon><polyline points="99.19 273.47 98.81 274.04 101.1 276.63 116.84 253.1 113.48 252.03" style="fill: none; stroke: rgb(38, 50, 56); stroke-linecap: round; stroke-linejoin: round; transform-origin: 107.825px 264.33px;" id="elf3otfy48i2e" class="animable"></polyline><line x1="113.48" y1="252.03" x2="99.19" y2="273.47" style="fill: none; stroke: rgb(255, 255, 255); stroke-linecap: round; stroke-linejoin: round; transform-origin: 106.335px 262.75px;" id="el7gywcl6jw27" class="animable"></line><line x1="151.61" y1="260.43" x2="136.86" y2="282.07" style="fill: none; stroke: rgb(255, 255, 255); stroke-linecap: round; stroke-linejoin: round; transform-origin: 144.235px 271.25px;" id="elqjficvlhn6d" class="animable"></line><polyline points="136.87 282.07 139.16 284.66 154.96 261.5 151.61 260.43" style="fill: none; stroke: rgb(38, 50, 56); stroke-linecap: round; stroke-linejoin: round; transform-origin: 145.915px 272.545px;" id="el29nwhnurq42" class="animable"></polyline><line x1="192.47" y1="269.3" x2="194.91" y2="270.22" style="fill: none; stroke: rgb(38, 50, 56); stroke-linecap: round; stroke-linejoin: round; transform-origin: 193.69px 269.76px;" id="elrls5pz4u79" class="animable"></line><line x1="178.42" y1="292.43" x2="192.47" y2="269.3" style="fill: none; stroke: rgb(255, 255, 255); stroke-linecap: round; stroke-linejoin: round; transform-origin: 185.445px 280.865px;" id="elyguoexu9zd" class="animable"></line><line x1="180.86" y1="294.51" x2="194.46" y2="272.2" style="fill: none; stroke: rgb(38, 50, 56); stroke-linecap: round; stroke-linejoin: round; transform-origin: 187.66px 283.355px;" id="elteqvkpldvw" class="animable"></line><line x1="217.92" y1="299.93" x2="229.75" y2="277.85" style="fill: none; stroke: rgb(255, 255, 255); stroke-linecap: round; stroke-linejoin: round; transform-origin: 223.835px 288.89px;" id="elws5sfnldz2f" class="animable"></line><line x1="220.12" y1="302.45" x2="232.96" y2="278.77" style="fill: none; stroke: rgb(38, 50, 56); stroke-linecap: round; stroke-linejoin: round; transform-origin: 226.54px 290.61px;" id="el7facpmpfjo5" class="animable"></line><line x1="237.08" y1="279.99" x2="226.24" y2="300.77" style="fill: none; stroke: rgb(38, 50, 56); stroke-linecap: round; stroke-linejoin: round; transform-origin: 231.66px 290.38px;" id="elguj3bcwox9d" class="animable"></line><line x1="249.92" y1="255.39" x2="241.67" y2="270.83" style="fill: rgb(255, 255, 255); stroke: rgb(38, 50, 56); stroke-linecap: round; stroke-linejoin: round; transform-origin: 245.795px 263.11px;" id="eld9jhgi8wjpq" class="animable"></line><line x1="105.07" y1="274.65" x2="119.28" y2="253.56" style="fill: none; stroke: rgb(38, 50, 56); stroke-linecap: round; stroke-linejoin: round; transform-origin: 112.175px 264.105px;" id="el7lyivm9t99k" class="animable"></line><line x1="123.56" y1="247.91" x2="135.33" y2="231.1" style="fill: none; stroke: rgb(38, 50, 56); stroke-linecap: round; stroke-linejoin: round; transform-origin: 129.445px 239.505px;" id="elu81kkmxc0rl" class="animable"></line><line x1="161.33" y1="256.15" x2="173.09" y2="239.5" style="fill: none; stroke: rgb(38, 50, 56); stroke-linecap: round; stroke-linejoin: round; transform-origin: 167.21px 247.825px;" id="elqjo9lvy3ipd" class="animable"></line><line x1="143.27" y1="282.74" x2="157.63" y2="262.42" style="fill: none; stroke: rgb(38, 50, 56); stroke-linecap: round; stroke-linejoin: round; transform-origin: 150.45px 272.58px;" id="elf1v197vh384" class="animable"></line><line x1="185.75" y1="292.37" x2="198.12" y2="271.13" style="fill: none; stroke: rgb(38, 50, 56); stroke-linecap: round; stroke-linejoin: round; transform-origin: 191.935px 281.75px;" id="eldo4vpm3mdpg" class="animable"></line><line x1="200.98" y1="265.72" x2="210.5" y2="248.06" style="fill: rgb(255, 255, 255); stroke: rgb(38, 50, 56); stroke-linecap: round; stroke-linejoin: round; transform-origin: 205.74px 256.89px;" id="elgh6lkliz2ii" class="animable"></line></g><g id="freepik--Text--inject-2" class="animable animator-hidden" style="transform-origin: 255.06px 435.735px;"><path d="M136.09,464.94l-3.65-21.61h1.73L137,460.88l3.25-17.23H142l3.34,17.26,2.64-17.58h1.7l-3.49,21.61h-1.57l-3.45-17.82-3.38,17.82Z" style="fill: rgb(38, 50, 56); transform-origin: 141.06px 454.135px;" id="elg9nsyig4cwl" class="animable"></path><path d="M157.46,465.2a5.83,5.83,0,0,1-3.35-.84,4.38,4.38,0,0,1-1.7-2.34,11.11,11.11,0,0,1-.5-3.46v-9a10.1,10.1,0,0,1,.52-3.43,4.38,4.38,0,0,1,1.74-2.25,5.82,5.82,0,0,1,3.29-.8,5.93,5.93,0,0,1,3.32.8,4.29,4.29,0,0,1,1.72,2.25,10.37,10.37,0,0,1,.51,3.43v9a10.93,10.93,0,0,1-.5,3.44,4.39,4.39,0,0,1-1.69,2.33A5.79,5.79,0,0,1,157.46,465.2Zm0-1.62a3.51,3.51,0,0,0,2.19-.58,2.88,2.88,0,0,0,1-1.6A8.94,8.94,0,0,0,161,459v-9.79a8.88,8.88,0,0,0-.28-2.38,2.81,2.81,0,0,0-1-1.56,4.67,4.67,0,0,0-4.36,0,2.74,2.74,0,0,0-1,1.56,8.88,8.88,0,0,0-.28,2.38V459a8.94,8.94,0,0,0,.28,2.38,2.8,2.8,0,0,0,1,1.6A3.48,3.48,0,0,0,157.46,463.58Z" style="fill: rgb(38, 50, 56); transform-origin: 157.46px 454.14px;" id="eldhv0gtrt83q" class="animable"></path><path d="M166.37,464.94V443.33h4.88a6.63,6.63,0,0,1,3.19.65,3.78,3.78,0,0,1,1.67,1.9,8,8,0,0,1,.5,2.95,9.66,9.66,0,0,1-.26,2.26,4.53,4.53,0,0,1-.91,1.82,3.11,3.11,0,0,1-1.82,1l3.31,11.05h-2l-3.18-10.62H168.4v10.62Zm2-12.11h2.74a4,4,0,0,0,2.11-.46,2.5,2.5,0,0,0,1.07-1.33,6.62,6.62,0,0,0,.32-2.21,5.16,5.16,0,0,0-.7-3,3.15,3.15,0,0,0-2.74-1h-2.8Z" style="fill: rgb(38, 50, 56); transform-origin: 171.65px 454.141px;" id="ell7qgpvw48pp" class="animable"></path><path d="M180,464.94V443.33h2v20.09h6.14v1.52Z" style="fill: rgb(38, 50, 56); transform-origin: 184.07px 454.135px;" id="elptm8y4gs5ps" class="animable"></path><path d="M190.22,464.94V443.33h4.69a6.62,6.62,0,0,1,3.53.79,4.15,4.15,0,0,1,1.79,2.22,9.8,9.8,0,0,1,.52,3.34v8.59a10.72,10.72,0,0,1-.52,3.51,4.45,4.45,0,0,1-1.75,2.33,6,6,0,0,1-3.38.83Zm2-1.52H195a3.72,3.72,0,0,0,2.51-.71,3.23,3.23,0,0,0,1-1.95,15.79,15.79,0,0,0,.22-2.81v-8.06a11.7,11.7,0,0,0-.28-2.73,2.79,2.79,0,0,0-1.1-1.68,4.24,4.24,0,0,0-2.44-.58h-2.64Z" style="fill: rgb(38, 50, 56); transform-origin: 195.486px 454.134px;" id="elsi4tb9ort7h" class="animable"></path><path d="M215.1,465.23a6.48,6.48,0,0,1-3.72-.93,4.9,4.9,0,0,1-1.88-2.55A12.06,12.06,0,0,1,209,458v-7.71a12.5,12.5,0,0,1,.53-3.84,4.61,4.61,0,0,1,1.88-2.51,8.39,8.39,0,0,1,7.23-.12,4.13,4.13,0,0,1,1.8,2.18,9.13,9.13,0,0,1,.54,3.28v1.81h-3.79v-1.87a12,12,0,0,0-.1-1.65,2.09,2.09,0,0,0-.5-1.19,1.93,1.93,0,0,0-1.43-.44,2,2,0,0,0-1.48.47,2.26,2.26,0,0,0-.6,1.25,10.69,10.69,0,0,0-.13,1.78v9.39a8.61,8.61,0,0,0,.18,1.93,2,2,0,0,0,.68,1.15,2.19,2.19,0,0,0,1.35.38,1.8,1.8,0,0,0,1.4-.46,2.27,2.27,0,0,0,.52-1.24,13.07,13.07,0,0,0,.11-1.74v-1.95H221v1.74a10.43,10.43,0,0,1-.51,3.4,4.4,4.4,0,0,1-1.78,2.32A6.4,6.4,0,0,1,215.1,465.23Z" style="fill: rgb(38, 50, 56); transform-origin: 214.999px 454.15px;" id="elu8te34dct1" class="animable"></path><path d="M223.75,464.94V443.33h3.92v9h4.4v-9h4v21.61h-4v-9.77h-4.4v9.77Z" style="fill: rgb(38, 50, 56); transform-origin: 229.91px 454.135px;" id="elbd9swlhxdqh" class="animable"></path><path d="M245.19,465.23a6.78,6.78,0,0,1-3.65-.85,4.71,4.71,0,0,1-1.95-2.46,11,11,0,0,1-.59-3.78v-8.09a10.73,10.73,0,0,1,.59-3.75,4.56,4.56,0,0,1,1.95-2.38,7,7,0,0,1,3.65-.83,7.07,7.07,0,0,1,3.7.83,4.69,4.69,0,0,1,1.94,2.38,10.5,10.5,0,0,1,.6,3.75v8.11a10.61,10.61,0,0,1-.6,3.75,4.86,4.86,0,0,1-1.94,2.45A6.77,6.77,0,0,1,245.19,465.23Zm0-2.91a1.82,1.82,0,0,0,2.08-1.6,7.48,7.48,0,0,0,.16-1.62v-10a7.32,7.32,0,0,0-.16-1.63,2.05,2.05,0,0,0-.62-1.14,2.21,2.21,0,0,0-1.46-.41,2.14,2.14,0,0,0-1.41.41,2,2,0,0,0-.64,1.14,7.32,7.32,0,0,0-.16,1.63v10a9.05,9.05,0,0,0,.14,1.62,2.09,2.09,0,0,0,.63,1.18A2.13,2.13,0,0,0,245.19,462.32Z" style="fill: rgb(38, 50, 56); transform-origin: 245.215px 454.16px;" id="elribl8go9jh" class="animable"></path><path d="M260.16,465.23a6.49,6.49,0,0,1-3.73-.93,5,5,0,0,1-1.88-2.55A12.06,12.06,0,0,1,254,458v-7.71a12.5,12.5,0,0,1,.53-3.84,4.66,4.66,0,0,1,1.88-2.51,8.39,8.39,0,0,1,7.23-.12,4.13,4.13,0,0,1,1.8,2.18,9.13,9.13,0,0,1,.54,3.28v1.81h-3.79v-1.87a13.91,13.91,0,0,0-.09-1.65,2.1,2.1,0,0,0-.51-1.19,1.93,1.93,0,0,0-1.43-.44,2,2,0,0,0-1.48.47,2.26,2.26,0,0,0-.6,1.25,10.69,10.69,0,0,0-.13,1.78v9.39a8,8,0,0,0,.19,1.93,2,2,0,0,0,.68,1.15,2.14,2.14,0,0,0,1.34.38,1.79,1.79,0,0,0,1.4-.46,2.27,2.27,0,0,0,.52-1.24,13.07,13.07,0,0,0,.11-1.74v-1.95H266v1.74a10.43,10.43,0,0,1-.51,3.4,4.43,4.43,0,0,1-1.77,2.32A6.42,6.42,0,0,1,260.16,465.23Z" style="fill: rgb(38, 50, 56); transform-origin: 260px 454.15px;" id="el9q8rj0pkfo" class="animable"></path><path d="M274.61,465.23a6.8,6.8,0,0,1-3.65-.85,4.71,4.71,0,0,1-1.95-2.46,11,11,0,0,1-.59-3.78v-8.09a10.73,10.73,0,0,1,.59-3.75,4.56,4.56,0,0,1,1.95-2.38,7,7,0,0,1,3.65-.83,7.07,7.07,0,0,1,3.7.83,4.66,4.66,0,0,1,1.95,2.38,10.5,10.5,0,0,1,.6,3.75v8.11a10.61,10.61,0,0,1-.6,3.75,4.82,4.82,0,0,1-1.95,2.45A6.77,6.77,0,0,1,274.61,465.23Zm0-2.91a1.82,1.82,0,0,0,2.08-1.6,7.48,7.48,0,0,0,.16-1.62v-10a7.32,7.32,0,0,0-.16-1.63,2.05,2.05,0,0,0-.62-1.14,2.19,2.19,0,0,0-1.46-.41,2.14,2.14,0,0,0-1.41.41,2.08,2.08,0,0,0-.64,1.14,7.32,7.32,0,0,0-.16,1.63v10a8.19,8.19,0,0,0,.15,1.62,2,2,0,0,0,.62,1.18A2.13,2.13,0,0,0,274.61,462.32Z" style="fill: rgb(38, 50, 56); transform-origin: 274.64px 454.16px;" id="elhifw4o1v1vf" class="animable"></path><path d="M283.76,464.94V443.33h3.95v18.89h5.23v2.72Z" style="fill: rgb(38, 50, 56); transform-origin: 288.35px 454.135px;" id="elpthhytnp93h" class="animable"></path><path d="M293.9,464.94l4.32-21.61h4.21l4.33,21.61H303.1l-.85-5h-3.76l-.88,5Zm5-7.5h2.93l-1.47-9.07Z" style="fill: rgb(38, 50, 56); transform-origin: 300.33px 454.135px;" id="elfb8ea8p4lx5" class="animable"></path><path d="M310.06,464.94v-18.7h-3.44v-2.91H317.4v2.91H314v18.7Z" style="fill: rgb(38, 50, 56); transform-origin: 312.01px 454.135px;" id="el62wjrkvmirt" class="animable"></path><path d="M319.37,464.94V443.33h9.07v2.78h-5.12v6.21h4v2.75h-4v7.15h5.18v2.72Z" style="fill: rgb(38, 50, 56); transform-origin: 323.935px 454.135px;" id="ely51qockufh" class="animable"></path><path d="M337.27,464.94V443.33h5.1a9.61,9.61,0,0,1,4.12.72,4.2,4.2,0,0,1,2.1,2.21,9.84,9.84,0,0,1,.63,3.79V458a10.53,10.53,0,0,1-.63,3.91,4.34,4.34,0,0,1-2.08,2.32,8.75,8.75,0,0,1-4,.76Zm4-2.75h1.2a3.1,3.1,0,0,0,1.95-.48,2.14,2.14,0,0,0,.72-1.4,15.86,15.86,0,0,0,.13-2.25v-8.27a9.26,9.26,0,0,0-.19-2.11,1.81,1.81,0,0,0-.77-1.18,3.73,3.73,0,0,0-1.89-.37h-1.15Z" style="fill: rgb(38, 50, 56); transform-origin: 343.247px 454.16px;" id="elsbrhtwga3y" class="animable"></path><path d="M350.87,464.94l4.33-21.61h4.21l4.32,21.61h-3.65l-.86-5h-3.76l-.88,5Zm5-7.5h2.94l-1.47-9.07Z" style="fill: rgb(38, 50, 56); transform-origin: 357.3px 454.135px;" id="elxumn9hcorl" class="animable"></path><path d="M368.08,464.94V456.7l-4.37-13.37h3.68l2.66,8.56,2.51-8.56h3.6l-4.32,13.37v8.24Z" style="fill: rgb(38, 50, 56); transform-origin: 369.935px 454.135px;" id="elxscgiwjz2lh" class="animable"></path><line x1="217.1" y1="429.16" x2="130.93" y2="429.16" style="fill: none; stroke: rgb(38, 50, 56); stroke-linecap: round; stroke-linejoin: round; transform-origin: 174.015px 429.16px;" id="elru2siot2ptm" class="animable"></line><line x1="379.19" y1="473.27" x2="130.93" y2="473.27" style="fill: none; stroke: rgb(38, 50, 56); stroke-linecap: round; stroke-linejoin: round; transform-origin: 255.06px 473.27px;" id="elssx53a3al6" class="animable"></line><line x1="378.16" y1="429.16" x2="291.99" y2="429.16" style="fill: none; stroke: rgb(38, 50, 56); stroke-linecap: round; stroke-linejoin: round; transform-origin: 335.075px 429.16px;" id="elp2kkwfbiwul" class="animable"></line><polygon points="246.54 416.31 245.13 417.15 243.9 419.32 240.79 418.1 227.87 422.06 226.07 425.17 224.38 426.02 223.53 426.59 224.19 432.15 237.68 438.09 264.65 430.64 247.77 416.21 246.54 416.31" style="fill: rgb(255, 255, 255); stroke: rgb(38, 50, 56); stroke-linecap: round; stroke-linejoin: round; transform-origin: 244.09px 427.15px;" id="elwj3ssdbrcyq" class="animable"></polygon><polygon points="242.2 418.57 252.01 422.72 252.3 425.93 255.22 426.59 253.33 427.34 253.05 433.57 264.65 430.64 247.77 416.21 245.13 417.15 244.28 418.66 242.2 418.57" style="fill: rgb(38, 50, 56); stroke: rgb(38, 50, 56); stroke-linecap: round; stroke-linejoin: round; transform-origin: 253.425px 424.89px;" id="elemalxtu5s6c" class="animable"></polygon><polygon points="252.01 422.72 239.19 426.59 239.28 429.98 252.3 425.93 252.01 422.72" style="fill: rgb(255, 255, 255); stroke: rgb(38, 50, 56); stroke-linecap: round; stroke-linejoin: round; transform-origin: 245.745px 426.35px;" id="el3smvuexh2op" class="animable"></polygon><polygon points="228.53 422.34 237.58 426.21 238.05 429.89 227.21 425.64 228.53 422.34" style="fill: rgb(38, 50, 56); stroke: rgb(38, 50, 56); stroke-linecap: round; stroke-linejoin: round; transform-origin: 232.63px 426.115px;" id="elz6tjgbdiy1" class="animable"></polygon><polygon points="223.53 426.59 238.43 432.06 237.68 438.09 224.19 432.15 223.53 426.59" style="fill: rgb(38, 50, 56); stroke: rgb(38, 50, 56); stroke-linecap: round; stroke-linejoin: round; transform-origin: 230.98px 432.34px;" id="el9eslr30sv1" class="animable"></polygon><line x1="239.85" y1="431.68" x2="251.92" y2="428" style="fill: rgb(255, 255, 255); stroke: rgb(38, 50, 56); stroke-linecap: round; stroke-linejoin: round; transform-origin: 245.885px 429.84px;" id="el3sk2xqiyp32" class="animable"></line><path d="M255.69,398.76s-9.9,3.4-10.66,4a21.91,21.91,0,0,0-2.45,3l-1,.57L240,409.8l29.43,27.92,15.38-7.08a42.22,42.22,0,0,0,.38-4.43,3.49,3.49,0,0,0-.38-1.23l-1.61-3.77s-9.81-9.34-10.37-9.53a17.83,17.83,0,0,0-3.49.29l-1.6-4.15-10.29-9.62A5.05,5.05,0,0,0,255.69,398.76Z" style="fill: rgb(255, 255, 255); stroke: rgb(38, 50, 56); stroke-linecap: round; stroke-linejoin: round; transform-origin: 262.595px 417.96px;" id="elvjzo95kx5yl" class="animable"></path><polygon points="245.69 403.29 255.6 412.15 255.13 417.81 242.96 406.5 245.69 403.29" style="fill: rgb(38, 50, 56); stroke: rgb(38, 50, 56); stroke-linecap: round; stroke-linejoin: round; transform-origin: 249.28px 410.55px;" id="elrxtl32mcnue" class="animable"></polygon><polygon points="261.16 416.97 271.92 426.3 271.25 431.49 257.48 419.32 261.16 416.97" style="fill: rgb(38, 50, 56); stroke: rgb(38, 50, 56); stroke-linecap: round; stroke-linejoin: round; transform-origin: 264.7px 424.23px;" id="eleg9sjo6u7ke" class="animable"></polygon><polygon points="256.16 416.4 268.52 410.65 267.77 407.82 256.82 412.06 256.16 416.4" style="fill: rgb(255, 255, 255); stroke: rgb(38, 50, 56); stroke-linecap: round; stroke-linejoin: round; transform-origin: 262.34px 412.11px;" id="elpy1cxfy9dzg" class="animable"></polygon><polygon points="272.86 425.64 283.24 421.21 284.84 424.98 272.2 430.93 272.86 425.64" style="fill: rgb(255, 255, 255); stroke: rgb(38, 50, 56); stroke-linecap: round; stroke-linejoin: round; transform-origin: 278.52px 426.07px;" id="elxu1fa2ek7ke" class="animable"></polygon><polygon points="270.69 432.91 269.46 437.72 240.03 409.8 241.54 406.31 270.69 432.91" style="fill: rgb(38, 50, 56); stroke: rgb(38, 50, 56); stroke-linecap: round; stroke-linejoin: round; transform-origin: 255.36px 422.015px;" id="el7cinr1f8hqf" class="animable"></polygon><line x1="262.2" y1="415.74" x2="268.61" y2="413" style="fill: rgb(255, 255, 255); stroke: rgb(38, 50, 56); stroke-linecap: round; stroke-linejoin: round; transform-origin: 265.405px 414.37px;" id="elpsbpulllat" class="animable"></line></g><defs>     <filter id="active" height="200%">         <feMorphology in="SourceAlpha" result="DILATED" operator="dilate" radius="2"></feMorphology>                <feFlood flood-color="#32DFEC" flood-opacity="1" result="PINK"></feFlood>        <feComposite in="PINK" in2="DILATED" operator="in" result="OUTLINE"></feComposite>        <feMerge>            <feMergeNode in="OUTLINE"></feMergeNode>            <feMergeNode in="SourceGraphic"></feMergeNode>        </feMerge>    </filter>    <filter id="hover" height="200%">        <feMorphology in="SourceAlpha" result="DILATED" operator="dilate" radius="2"></feMorphology>                <feFlood flood-color="#ff0000" flood-opacity="0.5" result="PINK"></feFlood>        <feComposite in="PINK" in2="DILATED" operator="in" result="OUTLINE"></feComposite>        <feMerge>            <feMergeNode in="OUTLINE"></feMergeNode>            <feMergeNode in="SourceGraphic"></feMergeNode>        </feMerge>            <feColorMatrix type="matrix" values="0   0   0   0   0                0   1   0   0   0                0   0   0   0   0                0   0   0   1   0 "></feColorMatrix>    </filter></defs></svg>